<svg width="22" height="24" viewBox="0 0 22 24" fill="none" stroke="#111111" xmlns="http://www.w3.org/2000/svg">
<path d="M7.8875 19.1923V19.8422C7.8875 20.2571 7.96803 20.6679 8.12447 21.0512C8.28092 21.4345 8.51023 21.7827 8.79928 22.076C9.08834 22.3693 9.43148 22.6018 9.80909 22.7603C10.1867 22.9189 10.5914 23.0003 11 23C11.4087 23.0002 11.8134 22.9186 12.191 22.7599C12.5686 22.6012 12.9118 22.3685 13.2008 22.0752C13.4898 21.7818 13.7191 21.4335 13.8756 21.0501C14.032 20.6668 14.1125 20.2559 14.1125 19.8409V19.1923M18.4338 19.1923C19.1144 19.1923 19.7671 18.9178 20.2484 18.4291C20.7296 17.9404 21 17.2777 21 16.5866C20.9994 15.8555 20.7136 15.1545 20.205 14.637L18.5 12.9071V8.61538C18.5 6.59566 17.7098 4.65866 16.3033 3.23049C14.8968 1.80233 12.9891 1 11 1C9.01088 1 7.10322 1.80233 5.6967 3.23049C4.29018 4.65866 3.5 6.59566 3.5 8.61538V12.9071L1.795 14.637C1.28644 15.1545 1.00058 15.8555 1 16.5866C1 17.2777 1.27037 17.9404 1.75164 18.4291C2.2329 18.9178 2.88564 19.1923 3.56625 19.1923H18.4338Z" stroke-linecap="round" stroke-linejoin="round"/>
</svg>
