<svg width="20" height="20" viewBox="0 0 20 20" fill="none" xmlns="http://www.w3.org/2000/svg">
<path d="M16.2413 5.80545H17.2787C18.1196 5.80545 18.8001 6.48599 18.8001 7.32688V16.9961C18.8001 17.836 18.1196 18.5166 17.2787 18.5166H6.63264C5.79175 18.5166 5.11121 17.836 5.11121 16.9951V15.5832M6.46055 0.916565V2.87212M12.3272 0.916565V2.87212M6.27477 6.78323H12.1414M6.27477 10.6943H12.1414M2.17886 15.5832H13.2395C13.8936 15.5832 14.5037 15.2567 14.8665 14.712L15.5842 13.6345C16.0125 12.9921 16.2413 12.2373 16.2413 11.4648V3.8499C16.2413 2.76945 15.3661 1.89434 14.2857 1.89434H4.50793C3.42748 1.89434 2.55237 2.76945 2.55237 3.8499V10.7491C2.55237 11.3563 2.41059 11.9547 2.13975 12.4983L1.30473 14.1684C0.979126 14.8186 1.45237 15.5832 2.17886 15.5832Z" stroke="#222222" stroke-linecap="round" stroke-linejoin="round"/>
</svg>
