<svg width="25" height="24" viewBox="0 0 25 24" fill="#111111" xmlns="http://www.w3.org/2000/svg">
<path d="M5.8717 23.5147C5.60876 23.5147 5.34764 23.4327 5.1248 23.2716C4.70969 22.9707 4.51577 22.4536 4.62875 21.9547L6.17274 15.1534L0.936524 10.5614C0.551627 10.2253 0.40459 9.69323 0.562614 9.20634C0.720638 8.72036 1.15058 8.3763 1.65963 8.32924L8.58777 7.70026L11.3269 1.29012C11.5289 0.819161 11.9889 0.515015 12.4999 0.515015C13.011 0.515015 13.471 0.819161 13.6729 1.28902L16.4121 7.70026L23.3391 8.32924C23.8493 8.3752 24.2792 8.72036 24.4372 9.20634C24.5952 9.69231 24.4491 10.2253 24.0642 10.5614L18.828 15.1525L20.372 21.9536C20.4852 22.4536 20.2911 22.9707 19.8761 23.2707C19.4621 23.5706 18.91 23.5937 18.4741 23.3316L12.4999 19.7615L6.52577 23.3337C6.3238 23.4536 6.09876 23.5147 5.8717 23.5147V23.5147ZM12.4999 18.2236C12.727 18.2236 12.9518 18.2846 13.154 18.4045L18.7921 21.7767L17.3349 15.3574C17.2309 14.9005 17.386 14.4235 17.7391 14.1144L22.6832 9.77837L16.142 9.18436C15.671 9.14133 15.266 8.84524 15.082 8.41127L12.4999 2.36205L9.91477 8.41219C9.73276 8.84323 9.32772 9.13932 8.85786 9.18235L2.31571 9.77636L7.25968 14.1124C7.61381 14.4224 7.76872 14.8985 7.6638 15.3565L6.20771 21.7756L11.8458 18.4045C12.0478 18.2846 12.2729 18.2236 12.4999 18.2236V18.2236ZM8.53486 7.82422C8.53486 7.82422 8.53486 7.82532 8.53376 7.82624L8.53486 7.82422ZM16.463 7.82129L16.4641 7.82331C16.4641 7.82221 16.4641 7.82221 16.463 7.82129Z"/>
</svg>
