<svg width="24" height="24" viewBox="0 0 24 24" fill="black" xmlns="http://www.w3.org/2000/svg" stroke="black">
<g clip-path="url(#clip0_1071_220)">
<mask id="path-1-inside-1_1071_220">
<path d="M19.5 24H4.5C3.122 24 2 22.878 2 21.5V2.5C2 1.122 3.122 0 4.5 0H19.5C20.878 0 22 1.122 22 2.5V21.5C22 22.878 20.878 24 19.5 24ZM4.5 1C3.673 1 3 1.673 3 2.5V21.5C3 22.327 3.673 23 4.5 23H19.5C20.327 23 21 22.327 21 21.5V2.5C21 1.673 20.327 1 19.5 1H4.5Z"/>
</mask>
<path d="M19.5 24H4.5C3.122 24 2 22.878 2 21.5V2.5C2 1.122 3.122 0 4.5 0H19.5C20.878 0 22 1.122 22 2.5V21.5C22 22.878 20.878 24 19.5 24ZM4.5 1C3.673 1 3 1.673 3 2.5V21.5C3 22.327 3.673 23 4.5 23H19.5C20.327 23 21 22.327 21 21.5V2.5C21 1.673 20.327 1 19.5 1H4.5Z" />
<path d="M19.5 18H4.5V30H19.5V18ZM4.5 18C6.43571 18 8 19.5643 8 21.5H-4C-4 26.1917 -0.191709 30 4.5 30V18ZM8 21.5V2.5H-4V21.5H8ZM8 2.5C8 4.43571 6.43571 6 4.5 6V-6C-0.191709 -6 -4 -2.19171 -4 2.5H8ZM4.5 6H19.5V-6H4.5V6ZM19.5 6C17.5643 6 16 4.43571 16 2.5H28C28 -2.19171 24.1917 -6 19.5 -6V6ZM16 2.5V21.5H28V2.5H16ZM16 21.5C16 19.5643 17.5643 18 19.5 18V30C24.1917 30 28 26.1917 28 21.5H16ZM4.5 -5C0.359291 -5 -3 -1.64071 -3 2.5H9C9 4.98671 6.98671 7 4.5 7V-5ZM-3 2.5V21.5H9V2.5H-3ZM-3 21.5C-3 25.6407 0.359291 29 4.5 29V17C6.98671 17 9 19.0133 9 21.5H-3ZM4.5 29H19.5V17H4.5V29ZM19.5 29C23.6407 29 27 25.6407 27 21.5H15C15 19.0133 17.0133 17 19.5 17V29ZM27 21.5V2.5H15V21.5H27ZM27 2.5C27 -1.64071 23.6407 -5 19.5 -5V7C17.0133 7 15 4.98671 15 2.5H27ZM19.5 -5H4.5V7H19.5V-5Z" mask="url(#path-1-inside-1_1071_220)"/>
<path d="M18 12H14C13.448 12 13 11.776 13 11.5C13 11.224 13.448 11 14 11H18C18.552 11 19 11.224 19 11.5C19 11.776 18.552 12 18 12Z" />
<path d="M18 9H14C13.448 9 13 8.776 13 8.5C13 8.224 13.448 8 14 8H18C18.552 8 19 8.224 19 8.5C19 8.776 18.552 9 18 9Z" />
<path d="M18 15H14C13.448 15 13 14.776 13 14.5C13 14.224 13.448 14 14 14H18C18.552 14 19 14.224 19 14.5C19 14.776 18.552 15 18 15Z" />
<path d="M18 18H14C13.448 18 13 17.776 13 17.5C13 17.224 13.448 17 14 17H18C18.552 17 19 17.224 19 17.5C19 17.776 18.552 18 18 18Z" />
<path d="M18.5 20.9999H5.5C5.224 20.9999 5 20.7759 5 20.4999C5 20.2239 5.224 19.9999 5.5 19.9999H18.5C18.776 19.9999 19 20.2239 19 20.4999C19 20.7759 18.776 20.9999 18.5 20.9999Z" />
<path d="M7.76923 15V8.5M5 6H11M5 8H11" />
</g>
<defs>
<clipPath id="clip0_1071_220">
<rect width="24" height="24"/>
</clipPath>
</defs>
</svg>
